pinch_force_states
version=1
nRows=10
nColumns=45
inDegrees=yes

# SIMM Motion File Header:
name pinch_force_states
datacolumns 45
datarows 10
otherdata 1
range 0.00000000 0.00090000
endheader
time	/jointset/radiocarpal/deviation/value	/jointset/radiocarpal/deviation/speed	/jointset/radiocarpal/flexion/value	/jointset/radiocarpal/flexion/speed	/jointset/wrist_hand/wrist_hand_r1/value	/jointset/wrist_hand/wrist_hand_r1/speed	/jointset/wrist_hand/wrist_hand_r3/value	/jointset/wrist_hand/wrist_hand_r3/speed	/jointset/CMC1a/cmc_flexion/value	/jointset/CMC1a/cmc_flexion/speed	/jointset/CMC1b/cmc_abduction/value	/jointset/CMC1b/cmc_abduction/speed	/jointset/MCP/mp_flexion/value	/jointset/MCP/mp_flexion/speed	/jointset/IP/ip_flexion/value	/jointset/IP/ip_flexion/speed	/forceset/ECRL/activation	/forceset/ECRL/fiber_length	/forceset/ECRB/activation	/forceset/ECRB/fiber_length	/forceset/ECU/activation	/forceset/ECU/fiber_length	/forceset/FCR/activation	/forceset/FCR/fiber_length	/forceset/FCU/activation	/forceset/FCU/fiber_length	/forceset/EPL/activation	/forceset/EPL/fiber_length	/forceset/EPB/activation	/forceset/EPB/fiber_length	/forceset/FPL/activation	/forceset/FPL/fiber_length	/forceset/APL/activation	/forceset/APL/fiber_length	/forceset/APB/activation	/forceset/APB/fiber_length	/forceset/FPB/activation	/forceset/FPB/fiber_length	/forceset/OPP/activation	/forceset/OPP/fiber_length	/forceset/ADPt/activation	/forceset/ADPt/fiber_length	/forceset/ADPo/activation	/forceset/ADPo/fiber_length
      0.00000000	     -0.00000343	      0.00000000	     -0.00000418	      0.00000000	     -0.00026679	      0.00000000	     -0.00011969	      0.00000000	    -15.00018538	      0.00000000	    -20.00053259	      0.00000000	     20.00101610	      0.00000000	     40.00105595	      0.00000000	      0.01238483	      0.06436713	      0.36622056	      0.05554934	      0.99862122	      0.05972022	      0.01000000	      0.05034746	      0.60768366	      0.03007772	      0.47396701	      0.05163936	      0.07694563	      0.06439616	      1.00000000	      0.05387491	      0.01293340	      0.07101017	      0.08647987	      0.05354137	      0.12944159	      0.05023026	      0.51645636	      0.04493043	      0.99666356	      0.03818133	      0.87323913	      0.03148757
      0.00010000	     -0.00000142	      0.04016801	     -0.00000813	     -0.07899057	     -0.00011036	      3.12340662	     -0.00023296	     -2.26291309	    -15.00024763	     -1.23824587	    -20.00007346	      9.17378105	     20.00118756	      3.41498997	     40.00108236	      0.53887894	      0.01238483	      0.06436713	      0.36622056	      0.05554934	      0.99862122	      0.05972022	      0.00999185	      0.05034746	      0.60768366	      0.03007772	      0.47396701	      0.05163936	      0.07694563	      0.06439616	      1.00000000	      0.05387491	      0.01293340	      0.07101017	      0.08647987	      0.05354137	      0.12944159	      0.05023026	      0.51645636	      0.04493043	      0.99666356	      0.03818133	      0.87323913	      0.03148757
      0.00020000	      0.00000459	      0.07991625	     -0.00001996	     -0.15746063	      0.00035680	      6.21412827	     -0.00057178	     -4.51091471	    -15.00043170	     -2.43650670	    -19.99869963	     18.29364486	     20.00169625	      6.74460773	     40.00116585	      1.14132755	      0.01238483	      0.06436713	      0.36622056	      0.05554934	      0.99862122	      0.05972022	      0.00998370	      0.05034746	      0.60768366	      0.03007772	      0.47396701	      0.05163936	      0.07694563	      0.06439616	      1.00000000	      0.05387491	      0.01293340	      0.07101017	      0.08647987	      0.05354137	      0.12944159	      0.05023026	      0.51645636	      0.04493043	      0.99666356	      0.03818133	      0.87323913	      0.03148757
      0.00030000	      0.00001455	      0.11922503	     -0.00003961	     -0.23539703	      0.00113132	      9.27058854	     -0.00113464	     -6.74362821	    -15.00073359	     -3.59469114	    -19.99641660	     27.35753358	     20.00253368	      9.99012133	     40.00131265	      1.80452610	      0.01238483	      0.06436713	      0.36622056	      0.05554934	      0.99862122	      0.05972022	      0.00997554	      0.05034747	      0.60768366	      0.03007772	      0.47396701	      0.05163936	      0.07694563	      0.06439617	      1.00000000	      0.05387491	      0.01293340	      0.07101018	      0.08647987	      0.05354135	      0.12944159	      0.05023028	      0.51645636	      0.04493043	      0.99666356	      0.03818133	      0.87323913	      0.03148758
      0.00040000	      0.00002842	      0.15807530	     -0.00006702	     -0.31278688	      0.00220972	     12.29126606	     -0.00191998	     -8.96068408	    -15.00114930	     -4.71271973	    -19.99323006	     36.36343649	     20.00369151	     13.15275155	     40.00152869	      2.52574571	      0.01238483	      0.06436713	      0.36622056	      0.05554934	      0.99862122	      0.05972021	      0.00996739	      0.05034748	      0.60768366	      0.03007772	      0.47396701	      0.05163937	      0.07694563	      0.06439617	      1.00000000	      0.05387491	      0.01293340	      0.07101019	      0.08647987	      0.05354132	      0.12944159	      0.05023031	      0.51645636	      0.04493043	      0.99666356	      0.03818134	      0.87323913	      0.03148758
      0.00050000	      0.00004615	      0.19644869	     -0.00010215	     -0.38961752	      0.00358834	     15.27469195	     -0.00292624	    -11.16171986	    -15.00167479	     -5.79052450	    -19.98914591	     45.30938783	     20.00516151	     16.23367498	     40.00181964	      3.30234425	      0.01238483	      0.06436713	      0.36622056	      0.05554934	      0.99862122	      0.05972021	      0.00995924	      0.05034751	      0.60768366	      0.03007772	      0.47396701	      0.05163937	      0.07694563	      0.06439618	      1.00000000	      0.05387491	      0.01293340	      0.07101021	      0.08647987	      0.05354128	      0.12944159	      0.05023036	      0.51645636	      0.04493044	      0.99666356	      0.03818134	      0.87323913	      0.03148758
      0.00060000	      0.00006769	      0.23432745	     -0.00014492	     -0.46587655	      0.00526337	     18.21944764	     -0.00415178	    -13.34638002	    -15.00230606	     -6.82804869	    -19.98417024	     54.19346487	     20.00693556	     19.23402669	     40.00219092	      4.13176279	      0.01238483	      0.06436713	      0.36622056	      0.05554933	      0.99862122	      0.05972021	      0.00995109	      0.05034754	      0.60768366	      0.03007772	      0.47396701	      0.05163938	      0.07694563	      0.06439620	      1.00000000	      0.05387492	      0.01293340	      0.07101024	      0.08647987	      0.05354121	      0.12944159	      0.05023043	      0.51645636	      0.04493044	      0.99666356	      0.03818135	      0.87323913	      0.03148758
      0.00070000	      0.00009300	      0.27169442	     -0.00019530	     -0.54155179	      0.00723089	     21.12416308	     -0.00559496	    -15.51431591	    -15.00303906	     -7.82524650	    -19.97830934	     63.01378617	     20.00900567	     22.15490263	     40.00264767	      5.01152248	      0.01238483	      0.06436714	      0.36622056	      0.05554933	      0.99862122	      0.05972020	      0.00994293	      0.05034758	      0.60768366	      0.03007773	      0.47396701	      0.05163938	      0.07694563	      0.06439622	      1.00000000	      0.05387492	      0.01293340	      0.07101027	      0.08647987	      0.05354112	      0.12944159	      0.05023052	      0.51645636	      0.04493044	      0.99666356	      0.03818137	      0.87323913	      0.03148759
      0.00080000	      0.00012201	      0.30853304	     -0.00025322	     -0.61663131	      0.00948682	     23.98751508	     -0.00725408	    -17.66518568	    -15.00386976	     -8.78208287	    -19.97156967	     71.76851014	     20.01136393	     24.99736168	     40.00319482	      5.93922181	      0.01238483	      0.06436714	      0.36622056	      0.05554933	      0.99862122	      0.05972020	      0.00993478	      0.05034764	      0.60768366	      0.03007773	      0.47396701	      0.05163939	      0.07694563	      0.06439624	      1.00000000	      0.05387492	      0.01293340	      0.07101032	      0.08647987	      0.05354101	      0.12944159	      0.05023064	      0.51645636	      0.04493045	      0.99666356	      0.03818139	      0.87323913	      0.03148759
      0.00090000	      0.00015469	      0.34482728	     -0.00031861	     -0.69110341	      0.01202697	     26.80822598	     -0.00912741	    -19.79865417	    -15.00479413	     -9.69853334	    -19.96395789	     80.45583364	     20.01400256	     27.76242747	     40.00383704	      6.91253420	      0.01238483	      0.06436714	      0.36622056	      0.05554932	      0.99862122	      0.05972019	      0.00992663	      0.05034772	      0.60768366	      0.03007773	      0.47396701	      0.05163941	      0.07694563	      0.06439628	      1.00000000	      0.05387493	      0.01293340	      0.07101039	      0.08647987	      0.05354086	      0.12944159	      0.05023079	      0.51645636	      0.04493046	      0.99666356	      0.03818141	      0.87323913	      0.03148760
